<svg width="72" height="71" viewBox="0 0 72 71" fill="none" xmlns="http://www.w3.org/2000/svg">
<rect width="71.6969" height="71" rx="35.5" fill="#F6931E"/>
<path d="M41.3246 19.0772L33.5733 27.0811C33.4224 26.3479 33.2103 25.6712 32.9359 25.0535C31.8918 22.703 28.7355 22.1775 26.9588 24.0137C25.9923 25.0125 25.8864 26.2955 26.4837 27.64C27.4122 29.73 25.9422 35.1329 25.1576 37.3436C24.6683 38.7063 25.0832 40.1666 26.0943 41.1022L26.0942 41.1023L35.5425 49.8341C36.1932 50.4354 37.1952 50.4878 37.901 49.9537C40.7331 47.8107 43.2286 48.6003 46.4381 45.2681C46.5792 45.1217 47.1373 44.5672 47.2799 44.4199C49.9109 41.7032 50.2983 38.9187 47.1253 36.8984C47.5792 35.4277 46.5468 33.2397 44.5472 32.8439C44.6608 30.4441 42.7543 28.886 40.9665 28.8946L46.1528 23.5392C47.4072 22.244 47.367 20.1081 46.0656 18.9055C44.7831 17.7202 42.5426 17.8195 41.3246 19.0772ZM21.9091 41.2999L19.4159 43.8743C18.7275 44.5852 18.7613 45.7085 19.4914 46.3832L30.0675 56.1573C30.7976 56.8321 31.9476 56.8028 32.6361 56.0919L35.1292 53.5175C35.8177 52.8066 35.7839 51.6833 35.0537 51.0085L24.4777 41.2345C23.7475 40.5597 22.5975 40.589 21.9091 41.2999ZM32.3403 53.3793C31.7665 53.9717 30.8083 53.9961 30.1998 53.4338C29.5913 52.8715 29.5632 51.9355 30.1369 51.343C30.7107 50.7506 31.6689 50.7262 32.2774 51.2885C32.8859 51.8508 32.914 52.7869 32.3403 53.3793Z" fill="#FCFCFC"/>
</svg>
