<svg width="73" height="71" viewBox="0 0 73 71" fill="none" xmlns="http://www.w3.org/2000/svg">
<rect width="72.2829" height="71" rx="35.5" fill="#1B1464"/>
<path d="M42.8227 20H24.1496C21.8576 20 20 21.8282 20 24.0839V48.5876C20 50.8433 21.8576 52.6715 24.1496 52.6715H42.8227C45.1147 52.6715 46.9722 50.8433 46.9722 48.5876V24.0839C46.9722 21.8282 45.1114 20 42.8227 20ZM33.4861 28.1679C35.7781 28.1679 37.6357 29.9961 37.6357 32.2518C37.6357 34.5076 35.7781 36.3358 33.4861 36.3358C31.1948 36.3358 29.3365 34.5076 29.3365 32.2518C29.3365 29.9961 31.1974 28.1679 33.4861 28.1679ZM39.7105 44.5036H27.2618C26.6912 44.5036 26.2244 44.0442 26.2244 43.4826C26.2244 40.6622 28.5455 38.3777 31.4113 38.3777H35.5609C38.4254 38.3777 40.7479 40.6635 40.7479 43.4826C40.7479 44.0442 40.281 44.5036 39.7105 44.5036ZM50.0844 24.0839H49.047V30.2098H50.0844C50.655 30.2098 51.1218 29.7504 51.1218 29.1889V25.1049C51.1218 24.5408 50.655 24.0839 50.0844 24.0839ZM50.0844 32.2518H49.047V38.3777H50.0844C50.655 38.3777 51.1218 37.9183 51.1218 37.3567V33.2728C51.1218 32.7113 50.655 32.2518 50.0844 32.2518ZM50.0844 40.4197H49.047V46.5456H50.0844C50.6573 46.5456 51.1218 46.0885 51.1218 45.5246V41.4407C51.1218 40.8791 50.655 40.4197 50.0844 40.4197Z" fill="#FCFCFC"/>
</svg>
