<svg width="72" height="73" viewBox="0 0 72 73" fill="none" xmlns="http://www.w3.org/2000/svg">
<rect width="72" height="72.3487" rx="36" fill="#00A04B"/>
<path d="M50.4517 21.4658L46.0167 49.2399C45.9128 49.8912 45.5057 50.459 44.9101 50.7821C44.5744 50.9641 44.1984 51.0563 43.8235 51.0563C43.5333 51.0563 43.247 51.0017 42.9719 50.8909L34.4762 47.4718L30.9518 52.5763C30.6815 53.0229 30.2311 53.2571 29.7461 53.2571C28.9492 53.2571 28.3047 52.6348 28.3047 51.8654V45.43C28.3047 44.954 28.4691 44.4913 28.7719 44.116L43.827 25.4228L23.4748 43.107L16.3643 40.2432C15.5846 39.9288 15.0562 39.2195 15.0042 38.343C14.9523 37.4665 15.3832 36.7559 16.1171 36.3511L47.1617 19.2826C47.9024 18.8738 48.8165 18.9114 49.5177 19.3766C50.219 19.8419 50.5833 20.6535 50.4517 21.4658Z" fill="#FCFCFC"/>
</svg>
