<svg width="22" height="22" viewBox="0 0 22 22" fill="none" xmlns="http://www.w3.org/2000/svg">
<path d="M11 0C8.82441 0 6.69767 0.638717 4.88873 1.83538C3.07979 3.03204 1.66989 4.73291 0.83733 6.72289C0.00476617 8.71287 -0.213071 10.9026 0.211367 13.0151C0.635804 15.1277 1.68345 17.0682 3.22183 18.5913C4.76021 20.1143 6.72022 21.1515 8.85401 21.5717C10.9878 21.992 13.1995 21.7763 15.2095 20.952C17.2195 20.1277 18.9375 18.7319 20.1462 16.9409C21.3549 15.15 22 13.0444 22 10.8905C22 8.00216 20.8411 5.23212 18.7782 3.18975C16.7153 1.14739 13.9174 0 11 0ZM16.707 8.62033L9.707 15.5506C9.51948 15.7363 9.26517 15.8405 9 15.8405C8.73484 15.8405 8.48053 15.7363 8.293 15.5506L5.293 12.5805C5.11085 12.3938 5.01005 12.1437 5.01233 11.8841C5.01461 11.6245 5.11978 11.3762 5.30519 11.1926C5.49059 11.0091 5.74141 10.905 6.0036 10.9027C6.2658 10.9005 6.5184 11.0002 6.707 11.1806L9 13.4508L15.293 7.2204C15.4816 7.04006 15.7342 6.94027 15.9964 6.94252C16.2586 6.94478 16.5094 7.0489 16.6948 7.23246C16.8802 7.41603 16.9854 7.66434 16.9877 7.92393C16.99 8.18352 16.8892 8.4336 16.707 8.62033Z" fill="#EDC141"/>
</svg>
